<svg xmlns="http://www.w3.org/2000/svg" viewBox="0 0 600 840" preserveAspectRatio="xMidYMid slice" role="img">
  <defs>
    <linearGradient id="hf-base" x1="0" y1="0" x2="1" y2="1">
      <stop offset="0" stop-color="#0a1112"/>
      <stop offset="0.55" stop-color="#0a0605"/>
      <stop offset="1" stop-color="#160806"/>
    </linearGradient>
    <radialGradient id="hf-teal" cx="0.28" cy="0.36" r="0.6">
      <stop offset="0" stop-color="#1f7d7a" stop-opacity="0.7"/>
      <stop offset="0.5" stop-color="#0e4746" stop-opacity="0.35"/>
      <stop offset="1" stop-color="#0e4746" stop-opacity="0"/>
    </radialGradient>
    <radialGradient id="hf-red" cx="0.78" cy="0.5" r="0.6">
      <stop offset="0" stop-color="#c53318" stop-opacity="0.75"/>
      <stop offset="0.5" stop-color="#7a1c0c" stop-opacity="0.4"/>
      <stop offset="1" stop-color="#7a1c0c" stop-opacity="0"/>
    </radialGradient>
    <linearGradient id="hf-fig" x1="0" y1="0" x2="1" y2="0.4">
      <stop offset="0" stop-color="#20494b"/>
      <stop offset="0.5" stop-color="#0c0908"/>
      <stop offset="1" stop-color="#3a130b"/>
    </linearGradient>
    <linearGradient id="hf-fade" x1="0" y1="0" x2="0" y2="1">
      <stop offset="0.42" stop-color="#080605" stop-opacity="0"/>
      <stop offset="0.76" stop-color="#080605" stop-opacity="0.5"/>
      <stop offset="1" stop-color="#080605"/>
    </linearGradient>
    <filter id="hf-grain"><feTurbulence type="fractalNoise" baseFrequency="0.85" numOctaves="2" stitchTiles="stitch"/><feColorMatrix type="saturate" values="0"/><feComponentTransfer><feFuncA type="linear" slope="0.05"/></feComponentTransfer><feComposite operator="over" in2="SourceGraphic"/></filter>
    <filter id="hf-soft"><feGaussianBlur stdDeviation="6"/></filter>
  </defs>
  <rect width="600" height="840" fill="url(#hf-base)"/>
  <ellipse cx="180" cy="300" rx="330" ry="380" fill="url(#hf-teal)"/>
  <ellipse cx="460" cy="430" rx="320" ry="400" fill="url(#hf-red)"/>
  <g>
    <path d="M120,840 C130,640 225,540 300,540 C375,540 470,640 480,840 Z" fill="url(#hf-fig)"/>
    <rect x="262" y="404" width="76" height="150" rx="32" fill="url(#hf-fig)"/>
    <ellipse cx="300" cy="322" rx="100" ry="116" fill="url(#hf-fig)"/>
    <path d="M212,300 C205,352 214,404 246,446" fill="none" stroke="#8fe3df" stroke-opacity="0.55" stroke-width="4" filter="url(#hf-soft)"/>
    <path d="M388,300 C395,352 386,404 356,446" fill="none" stroke="#f26a44" stroke-opacity="0.6" stroke-width="4" filter="url(#hf-soft)"/>
    <ellipse cx="300" cy="322" rx="100" ry="116" fill="none" stroke="#cfd8d6" stroke-opacity="0.14" stroke-width="2"/>
  </g>
  <rect width="600" height="840" filter="url(#hf-grain)" opacity="0.45"/>
  <rect width="600" height="840" fill="url(#hf-fade)"/>
</svg>
