<svg xmlns="http://www.w3.org/2000/svg" viewBox="0 0 600 840" preserveAspectRatio="xMidYMid slice" role="img">
  <defs>
    <linearGradient id="ic-base" x1="0" y1="0" x2="0" y2="1">
      <stop offset="0" stop-color="#140a08"/>
      <stop offset="0.55" stop-color="#0a0605"/>
      <stop offset="1" stop-color="#050303"/>
    </linearGradient>
    <radialGradient id="ic-glow" cx="0.68" cy="0.42" r="0.62">
      <stop offset="0" stop-color="#7c1f10" stop-opacity="0.9"/>
      <stop offset="0.4" stop-color="#4a1108" stop-opacity="0.55"/>
      <stop offset="1" stop-color="#4a1108" stop-opacity="0"/>
    </radialGradient>
    <radialGradient id="ic-fig" cx="0.62" cy="0.34" r="0.8">
      <stop offset="0" stop-color="#2a1712"/>
      <stop offset="0.5" stop-color="#120a08"/>
      <stop offset="1" stop-color="#050303"/>
    </radialGradient>
    <linearGradient id="ic-fade" x1="0" y1="0" x2="0" y2="1">
      <stop offset="0.45" stop-color="#050303" stop-opacity="0"/>
      <stop offset="0.78" stop-color="#050303" stop-opacity="0.55"/>
      <stop offset="1" stop-color="#050303"/>
    </linearGradient>
    <filter id="ic-grain"><feTurbulence type="fractalNoise" baseFrequency="0.9" numOctaves="2" stitchTiles="stitch"/><feColorMatrix type="saturate" values="0"/><feComponentTransfer><feFuncA type="linear" slope="0.06"/></feComponentTransfer><feComposite operator="over" in2="SourceGraphic"/></filter>
    <filter id="ic-soft"><feGaussianBlur stdDeviation="7"/></filter>
  </defs>
  <rect width="600" height="840" fill="url(#ic-base)"/>
  <ellipse cx="410" cy="350" rx="360" ry="420" fill="url(#ic-glow)"/>
  <g transform="translate(40 0)">
    <path d="M150,840 C160,650 250,556 340,556 C430,556 520,650 530,840 Z" fill="url(#ic-fig)"/>
    <rect x="300" y="420" width="80" height="150" rx="34" fill="url(#ic-fig)"/>
    <ellipse cx="330" cy="338" rx="102" ry="118" fill="url(#ic-fig)"/>
    <path d="M232,300 C224,340 230,378 250,404" fill="none" stroke="#c8503a" stroke-opacity="0.5" stroke-width="3" filter="url(#ic-soft)"/>
    <path d="M235,250 C222,300 226,372 258,420 C230,392 214,338 224,286 Z" fill="#e0603f" fill-opacity="0.28" filter="url(#ic-soft)"/>
  </g>
  <rect width="600" height="840" filter="url(#ic-grain)" opacity="0.5"/>
  <rect width="600" height="840" fill="url(#ic-fade)"/>
</svg>
