<svg xmlns="http://www.w3.org/2000/svg" viewBox="0 0 600 840" preserveAspectRatio="xMidYMid slice" role="img">
  <defs>
    <linearGradient id="ss-base" x1="0" y1="0" x2="0" y2="1">
      <stop offset="0" stop-color="#100807"/>
      <stop offset="1" stop-color="#040302"/>
    </linearGradient>
    <radialGradient id="ss-glow" cx="0.4" cy="0.4" r="0.65">
      <stop offset="0" stop-color="#8f1f10" stop-opacity="0.7"/>
      <stop offset="0.45" stop-color="#4d0f07" stop-opacity="0.4"/>
      <stop offset="1" stop-color="#4d0f07" stop-opacity="0"/>
    </radialGradient>
    <radialGradient id="ss-fig" cx="0.5" cy="0.35" r="0.8">
      <stop offset="0" stop-color="#160c0a"/>
      <stop offset="1" stop-color="#040302"/>
    </radialGradient>
    <linearGradient id="ss-fade" x1="0" y1="0" x2="0" y2="1">
      <stop offset="0.42" stop-color="#040302" stop-opacity="0"/>
      <stop offset="0.76" stop-color="#040302" stop-opacity="0.55"/>
      <stop offset="1" stop-color="#040302"/>
    </linearGradient>
    <filter id="ss-grain"><feTurbulence type="fractalNoise" baseFrequency="0.9" numOctaves="2" stitchTiles="stitch"/><feColorMatrix type="saturate" values="0"/><feComponentTransfer><feFuncA type="linear" slope="0.06"/></feComponentTransfer><feComposite operator="over" in2="SourceGraphic"/></filter>
    <filter id="ss-soft"><feGaussianBlur stdDeviation="6"/></filter>
  </defs>
  <rect width="600" height="840" fill="url(#ss-base)"/>
  <ellipse cx="240" cy="330" rx="330" ry="380" fill="url(#ss-glow)"/>
  <g stroke="#d4c9ba" stroke-opacity="0.1" stroke-width="2" fill="none">
    <line x1="60" y1="150" x2="220" y2="150"/>
    <line x1="60" y1="176" x2="180" y2="176"/>
    <line x1="60" y1="202" x2="205" y2="202"/>
    <line x1="400" y1="230" x2="540" y2="230"/>
    <line x1="430" y1="256" x2="540" y2="256"/>
    <rect x="60" y="250" width="120" height="70" rx="6"/>
  </g>
  <g transform="translate(-6 0)">
    <path d="M118,840 C128,646 224,548 300,548 C376,548 472,646 482,840 Z" fill="url(#ss-fig)"/>
    <rect x="262" y="410" width="76" height="150" rx="32" fill="url(#ss-fig)"/>
    <ellipse cx="300" cy="328" rx="100" ry="116" fill="url(#ss-fig)"/>
    <path d="M388,296 C396,352 386,408 354,452" fill="none" stroke="#d83a20" stroke-opacity="0.65" stroke-width="4" filter="url(#ss-soft)"/>
    <path d="M470,560 C468,646 454,730 430,812" fill="none" stroke="#d83a20" stroke-opacity="0.35" stroke-width="4" filter="url(#ss-soft)"/>
  </g>
  <rect width="600" height="840" filter="url(#ss-grain)" opacity="0.5"/>
  <rect width="600" height="840" fill="url(#ss-fade)"/>
</svg>
