<svg xmlns="http://www.w3.org/2000/svg" viewBox="0 0 600 840" preserveAspectRatio="xMidYMid slice" role="img">
  <defs>
    <linearGradient id="sa-base" x1="0" y1="0" x2="0" y2="1">
      <stop offset="0" stop-color="#160a09"/>
      <stop offset="0.6" stop-color="#0a0605"/>
      <stop offset="1" stop-color="#050303"/>
    </linearGradient>
    <radialGradient id="sa-glow" cx="0.44" cy="0.2" r="0.72">
      <stop offset="0" stop-color="#a5301a" stop-opacity="0.8"/>
      <stop offset="0.4" stop-color="#5c150b" stop-opacity="0.5"/>
      <stop offset="1" stop-color="#5c150b" stop-opacity="0"/>
    </radialGradient>
    <radialGradient id="sa-fig" cx="0.5" cy="0.3" r="0.85">
      <stop offset="0" stop-color="#281410"/>
      <stop offset="0.5" stop-color="#110a08"/>
      <stop offset="1" stop-color="#050303"/>
    </radialGradient>
    <linearGradient id="sa-fade" x1="0" y1="0" x2="0" y2="1">
      <stop offset="0.44" stop-color="#050303" stop-opacity="0"/>
      <stop offset="0.78" stop-color="#050303" stop-opacity="0.55"/>
      <stop offset="1" stop-color="#050303"/>
    </linearGradient>
    <filter id="sa-grain"><feTurbulence type="fractalNoise" baseFrequency="0.9" numOctaves="2" stitchTiles="stitch"/><feColorMatrix type="saturate" values="0"/><feComponentTransfer><feFuncA type="linear" slope="0.06"/></feComponentTransfer><feComposite operator="over" in2="SourceGraphic"/></filter>
    <filter id="sa-soft"><feGaussianBlur stdDeviation="7"/></filter>
  </defs>
  <rect width="600" height="840" fill="url(#sa-base)"/>
  <ellipse cx="270" cy="180" rx="360" ry="340" fill="url(#sa-glow)"/>
  <g transform="rotate(-12 300 420)">
    <path d="M150,860 C160,660 250,566 340,566 C430,566 520,660 530,860 Z" fill="url(#sa-fig)"/>
    <rect x="300" y="430" width="80" height="150" rx="34" fill="url(#sa-fig)"/>
    <ellipse cx="336" cy="336" rx="100" ry="116" fill="url(#sa-fig)"/>
    <path d="M240,310 C232,356 242,404 274,442" fill="none" stroke="#e06438" stroke-opacity="0.5" stroke-width="4" filter="url(#sa-soft)"/>
    <path d="M300,236 C280,300 286,378 322,436 C286,398 262,332 274,268 Z" fill="#e8703c" fill-opacity="0.22" filter="url(#sa-soft)"/>
  </g>
  <rect width="600" height="840" filter="url(#sa-grain)" opacity="0.5"/>
  <rect width="600" height="840" fill="url(#sa-fade)"/>
</svg>
